Genre:Animation | Comedy | Family
Language:English
IMDb:http://www.imdb.com/title/tt1323594/
Source:720p.Bluray.x264-CBGB

General
Complete name :Despicable.Me.2010.BRRip.H264.Feel-Free
Format : MPEG-4
Format profile : Base Media
Codec ID : mp42
File size : 1.27 GiB
Duration : 1h 34mn
Overall bit rate : 1 913 Kbps
Video #1
Codec ID : avc1
Codec ID/Info : Advanced Video Coding
Duration : 1h 34mn
Bit rate mode : Variable
Bit rate : 1 433 Kbps
Width : 720 pixels
Height : 384 pixels
Display aspect ratio : 1.875
Frame rate mode : Constant
Frame rate : 23.976 fps
Resolution : 24 bits
Colorimetry : 4:2:0
Scan type : Progressive
Bits/(Pixel*Frame) : 0.216
Stream size : 972 MiB (75%)
Audio #2
ID : 2
Format : AAC
Format/Info : Advanced Audio Codec
Format version : Version 4
Format profile : LC
Format settings, SBR : No
Codec ID : 40
Duration : 1h 34mn
Bit rate mode : Constant
Bit rate : 476 Kbps
Nominal bit rate : 480 Kbps
Channel(s) : 6 channels
Channel positions : Front: L C R, Rear: L R, LFE
Sampling rate : 48.0 KHz
Resolution : 16 bits
Stream size : 323 MiB (25%)

Plot:
A trio of orphan girls cause the normally deplorable Gru to rethink his plan to steal the moon






================================== 
http://thepiratebay.org/user/hiest
==================================



